<?xml version="1.0" standalone="no"?><!DOCTYPE svg PUBLIC "-//W3C//DTD SVG 1.1//EN" "http://www.w3.org/Graphics/SVG/1.1/DTD/svg11.dtd"><svg t="1539158747045" class="icon" style="" viewBox="0 0 1024 1024" version="1.1" xmlns="http://www.w3.org/2000/svg" p-id="4176" xmlns:xlink="http://www.w3.org/1999/xlink" width="200" height="200"><defs><style type="text/css"></style></defs><path d="M514.85 378.06a31 31 0 1 0-31.35-31 31.17 31.17 0 0 0 31.35 31z" fill="#333333" p-id="4177"></path><path d="M890 573l-58.21-38.53a383.22 383.22 0 0 1-59 69.06L647.61 389.26a137 137 0 0 0-35.13-140.7V64.27H417.21v184.29a137 137 0 0 0-35.13 140.7L255 606.89a382.74 382.74 0 0 1-62.77-72.44L134.05 573a452.55 452.55 0 0 0 85.2 95.21l-76.74 131.43L162 959.73l149.55-63.18 80.55-138a458.95 458.95 0 0 0 244.69-1.35l81.33 139.33 149.55 63.18 19.51-160.09L808.56 665A452.42 452.42 0 0 0 890 573zM445.32 347.06c0-37.78 31.19-68.52 69.53-68.52s69.52 30.74 69.52 68.52-31.19 68.52-69.52 68.52-69.53-30.73-69.53-68.52z m158.73 106.08l112.72 193.08A382 382 0 0 1 668 672.11L555.38 479.23a139.57 139.57 0 0 0 48.67-26.09zM487.11 133.88h55.47v77.8a141.24 141.24 0 0 0-55.47 0z m-61.47 319.26a139.72 139.72 0 0 0 48.68 26.1L360.57 674.08a382.41 382.41 0 0 1-49.15-25.27zM262.83 841.52l-42.61 18-5.49-45.08L276.27 709a451.79 451.79 0 0 0 48.94 25.65zM512 704.9a387.28 387.28 0 0 1-83.29-9l86.14-147.55 85.47 146.41A387.57 387.57 0 0 1 512 704.9z m303 109.54l-5.49 45.08-42.61-18-63.61-108.91a452.18 452.18 0 0 0 48.64-26.16z" fill="#333333" p-id="4178"></path></svg>