<?xml version="1.0" standalone="no"?><!DOCTYPE svg PUBLIC "-//W3C//DTD SVG 1.1//EN" "http://www.w3.org/Graphics/SVG/1.1/DTD/svg11.dtd"><svg t="1538293707777" class="icon" style="" viewBox="0 0 1024 1024" version="1.1" xmlns="http://www.w3.org/2000/svg" p-id="736" xmlns:xlink="http://www.w3.org/1999/xlink" width="200" height="200"><defs><style type="text/css"></style></defs><path d="M254.182626 730.768139h-11.29339v-11.887778l-17.831667-18.822315 17.831667-18.4921v-11.887778h11.359433l95.762657-100.385682 40.979813 42.928088-54.848887 57.457594h344.745566v-57.127378l58.382199-61.089971v179.30732H336.142252l54.848887 57.127379-40.979813 42.928087z m-11.359433-209.356981v-61.089971h498.461142v61.089971H242.889236z m0-270.446953h403.094744l-54.815866-57.127378 40.979813-42.928088 95.762657 100.055466h11.392454v11.887778l17.336343 18.161883-15.322025 18.822316v12.217994h-11.392454l-95.762657 100.385682-40.979813-42.928088 54.848887-57.457594h-346.726862v57.127378l-58.349178 61.089971V250.964205z m-70.864366 772.705579a91.50287 91.50287 0 0 1-89.158336-93.451145V93.120929a91.436827 91.436827 0 0 1 89.158336-93.120929h511.834892l257.568526 269.126088v661.092551a91.50287 91.50287 0 0 1-89.158336 93.451145h-680.245082z m0-962.579813a31.601677 31.601677 0 0 0-30.809158 32.030958v837.09771a31.66772 31.66772 0 0 0 30.809158 32.361174h680.245082a31.66772 31.66772 0 0 0 30.809158-32.361174V293.892293l-222.664688-232.802322H171.958827z" fill="#999999" p-id="737"></path></svg>