<?xml version="1.0" standalone="no"?><!DOCTYPE svg PUBLIC "-//W3C//DTD SVG 1.1//EN" "http://www.w3.org/Graphics/SVG/1.1/DTD/svg11.dtd"><svg t="1538297104332" class="icon" style="" viewBox="0 0 1024 1024" version="1.1" xmlns="http://www.w3.org/2000/svg" p-id="5561" xmlns:xlink="http://www.w3.org/1999/xlink" width="200" height="200"><defs><style type="text/css"></style></defs><path d="M481.472 160a25.472 25.472 0 0 0-10.24-49.856 119.36 119.36 0 0 0-94.976 116.48c0 25.792 8.128 50.368 23.488 71.04a25.536 25.536 0 0 0 35.584 5.184 25.344 25.344 0 0 0 5.184-35.52 67.392 67.392 0 0 1-13.44-40.704c0.064-32.128 22.912-60.224 54.4-66.624z" p-id="5562"></path><path d="M775.424 687.04c-21.376 0-47.296-5.248-73.28-14.4l-46.528 36.032c41.92 18.624 86.336 29.248 119.744 29.248 6.592 0 11.968 5.376 11.968 12.032v30.656H202.816v-30.656c0-6.656 5.312-12.032 11.968-12.032 87.744 0 249.664-72.128 249.664-174.848V450.816c0-46.848-7.744-61.632-60.864-114.688a142.4 142.4 0 0 1-51.2-109.504c0-78.72 64-142.784 142.72-142.784s142.72 64 142.72 142.784c0 42.304-18.624 82.176-52.672 110.976-51.392 51.456-59.2 65.536-59.2 107.968l-0.128 117.504c0 44.736 30.656 83.648 72.512 113.28l42.368-32.64c-36.608-22.528-64.064-51.392-64.064-80.64l0.128-117.44c0-24.576 0-27.776 42.752-70.592a193.408 193.408 0 0 0 69.248-148.416A193.92 193.92 0 0 0 495.168 33.024a193.792 193.792 0 0 0-193.6 193.6c0 57.472 25.344 111.552 67.776 146.944 44.288 44.416 44.288 47.552 44.288 77.248v112.192c0 62.656-125.824 124.032-198.848 124.032a62.912 62.912 0 0 0-62.784 62.848v56.128c0 14.016 11.392 25.28 25.408 25.28h11.968v86.72c0 14.144 11.328 25.472 25.344 25.472h560.64a25.344 25.344 0 0 0 25.408-25.472v-86.72h12.032a25.28 25.28 0 0 0 25.344-25.28v-56.128a62.72 62.72 0 0 0-62.72-62.848z m-25.344 205.632H240.192v-61.376h509.824v61.376z" p-id="5563"></path></svg>