<?xml version="1.0" standalone="no"?><!DOCTYPE svg PUBLIC "-//W3C//DTD SVG 1.1//EN" "http://www.w3.org/Graphics/SVG/1.1/DTD/svg11.dtd"><svg t="1538294626522" class="icon" style="" viewBox="0 0 1024 1024" version="1.1" xmlns="http://www.w3.org/2000/svg" p-id="1065" xmlns:xlink="http://www.w3.org/1999/xlink" width="200" height="200"><defs><style type="text/css"></style></defs><path d="M511.755941 64.034409c-247.257383 0-447.700555 200.442148-447.700555 447.700555 0 247.257383 200.442148 447.700555 447.700555 447.700555 247.257383 0 447.700555-200.443172 447.700555-447.700555C959.455473 264.476557 759.013325 64.034409 511.755941 64.034409zM290.403554 813.340139l69.305459-81.102133L359.709013 252.658394c0-12.385075 10.04068-22.425755 22.425755-22.425755s22.425755 10.04068 22.425755 22.425755l0 479.579613 69.305459 81.102133L290.403554 813.340139zM813.252647 513.664919 645.476479 513.664919l-49.833989-44.798299L427.867346 468.86662 427.867346 252.658394l167.776168 0 49.833989 44.798299 167.776168 0L813.25367 513.664919z" p-id="1066"></path></svg>