<?xml version="1.0" standalone="no"?><!DOCTYPE svg PUBLIC "-//W3C//DTD SVG 1.1//EN" "http://www.w3.org/Graphics/SVG/1.1/DTD/svg11.dtd"><svg t="1538295214829" class="icon" style="" viewBox="0 0 1024 1024" version="1.1" xmlns="http://www.w3.org/2000/svg" p-id="2938" xmlns:xlink="http://www.w3.org/1999/xlink" width="200" height="200"><defs><style type="text/css"></style></defs><path d="M833.024 310.158222l-307.2-136.533333a34.133333 34.133333 0 0 0-27.648 0l-307.2 136.533333a34.133333 34.133333 0 0 0 0 62.350222l307.2 136.533334a34.133333 34.133333 0 0 0 27.704889 0l307.2-136.533334a34.133333 34.133333 0 0 0 0-62.350222zM512 682.666667a34.133333 34.133333 0 0 1-13.880889-2.958223l-307.2-136.533333a34.133333 34.133333 0 0 1 27.761778-62.350222L512 611.214222l293.319111-130.389333a34.133333 34.133333 0 1 1 27.704889 62.407111l-307.2 136.533333A34.133333 34.133333 0 0 1 512 682.666667z m0 170.666666a34.133333 34.133333 0 0 1-13.880889-2.958222l-307.2-136.533333a34.133333 34.133333 0 0 1 27.761778-62.350222L512 781.880889l293.319111-130.389333a34.133333 34.133333 0 1 1 27.704889 62.407111l-307.2 136.533333A34.133333 34.133333 0 0 1 512 853.333333z" p-id="2939"></path></svg>