<?xml version="1.0" standalone="no"?><!DOCTYPE svg PUBLIC "-//W3C//DTD SVG 1.1//EN" "http://www.w3.org/Graphics/SVG/1.1/DTD/svg11.dtd"><svg t="1538298197582" class="icon" style="" viewBox="0 0 1024 1024" version="1.1" xmlns="http://www.w3.org/2000/svg" p-id="6249" xmlns:xlink="http://www.w3.org/1999/xlink" width="200" height="200"><defs><style type="text/css"></style></defs><path d="M958.28 833.06v-52.506c0-16.086-13.179-29.129-29.43-29.129h-305.6v110.76h305.6c16.252-0.054 29.43-13.097 29.43-29.125M64.86 485.24v52.51c0 16.082 13.182 29.126 29.43 29.126h454.47V456.11H94.291c-16.248 0.117-29.43 13.05-29.43 29.13m0 295.256v52.506c0 16.086 13.182 29.13 29.43 29.13h268.358V751.423H94.29c-16.246 0.054-29.428 13.044-29.428 29.072m0-590.511v52.506c0 16.086 13.182 29.13 29.43 29.13h156.794V160.86H94.289c-16.246 0.107-29.428 13.039-29.428 29.125m223.358-65.934v184.544c0 20.397 16.64 36.867 37.243 36.867h111.676c20.606 0 37.246-16.47 37.246-36.867V124.051c0-20.396-16.698-36.87-37.246-36.87H325.46c-20.602-0.109-37.24 16.527-37.24 36.87m670.06 118.551v-52.505c0-16.082-13.179-29.13-29.43-29.13H511.572v110.76H928.85c16.252-0.107 29.43-13.097 29.43-29.125M586.001 419.25v184.606c0 20.392 16.64 36.863 37.247 36.863h111.676c20.602 0 37.242-16.47 37.242-36.863V419.356c0-20.392-16.64-36.863-37.242-36.863H623.25c-20.608-0.165-37.248 16.359-37.248 36.756M958.28 537.858v-52.506c0-16.086-13.178-29.125-29.43-29.125H809.357v110.649h119.495c16.251 0 29.428-12.932 29.428-29.018M399.896 714.504v184.548c0 20.397 16.64 36.867 37.242 36.867h111.676c20.607 0 37.247-16.47 37.247-36.867V714.504c0-20.396-16.699-36.862-37.247-36.862H437.138c-20.602 0-37.242 16.466-37.242 36.862m0 0" p-id="6250"></path></svg>