<?xml version="1.0" standalone="no"?><!DOCTYPE svg PUBLIC "-//W3C//DTD SVG 1.1//EN" "http://www.w3.org/Graphics/SVG/1.1/DTD/svg11.dtd"><svg t="1539160700143" class="icon" style="" viewBox="0 0 1024 1024" version="1.1" xmlns="http://www.w3.org/2000/svg" p-id="7254" xmlns:xlink="http://www.w3.org/1999/xlink" width="200" height="200"><defs><style type="text/css"></style></defs><path d="M506.368 158.208c-122.88 0-222.208 99.328-222.208 222.208s99.328 222.208 222.208 222.208 222.208-99.328 222.208-222.208c5.632-122.88-93.696-222.208-222.208-222.208z m0 379.904C418.304 538.112 348.16 467.968 348.16 380.416s70.144-158.208 158.208-158.208 158.208 70.144 158.208 158.208c5.632 87.552-65.024 157.696-158.208 157.696z m356.864 17.92c23.552-52.736 40.96-111.104 40.96-169.472C904.192 169.472 728.576 0 512 0S119.808 175.616 119.808 386.048c0 58.368 17.408 117.248 40.96 169.472L3.072 830.976s99.328 17.408 204.8 40.96C278.016 947.712 342.528 1024 342.528 1024l146.432-251.392h46.592l146.432 251.392s70.144-76.288 134.656-152.064c105.472-23.552 204.8-40.96 204.8-40.96l-158.208-274.944z m-532.48 362.496s-46.592-52.736-93.696-99.328c-64.512-17.408-146.432-35.328-146.432-35.328l99.328-175.616c52.736 70.144 146.432 128.512 233.984 152.064l-93.184 158.208z m175.616-210.432c-175.616 0-327.68-146.432-327.68-322.048s152.064-339.456 327.68-339.456 327.68 152.064 327.68 327.68c0 181.76-146.432 333.824-327.68 333.824z m286.72 105.472c-46.592 46.592-105.472 111.104-105.472 111.104l-93.696-163.84c87.552-23.552 175.616-81.92 228.352-152.064l111.104 175.616c0-0.512-76.288 11.264-140.288 29.184z" p-id="7255"></path></svg>