<?xml version="1.0" standalone="no"?><!DOCTYPE svg PUBLIC "-//W3C//DTD SVG 1.1//EN" "http://www.w3.org/Graphics/SVG/1.1/DTD/svg11.dtd"><svg t="1538295330333" class="icon" style="" viewBox="0 0 1024 1024" version="1.1" xmlns="http://www.w3.org/2000/svg" p-id="3608" xmlns:xlink="http://www.w3.org/1999/xlink" width="200" height="200"><defs><style type="text/css"></style></defs><path d="M716.075153 334.39292 307.935572 334.39292c-11.724461 0-21.252038 9.457863-21.252038 21.092947l0 270.470566c0 11.613633 9.527577 21.062559 21.252038 21.062559l34.029358 0c7.044687 0 12.757658 5.711183 12.757658 12.759445l0 43.851879 82.205291-54.487729c2.084269-1.385342 4.534984-2.123595 7.041112-2.123595l272.104375 0c11.710161 0 21.237737-9.448925 21.237737-21.062559L737.311103 355.485866C737.311103 343.850782 727.783526 334.39292 716.075153 334.39292zM375.9639 524.501146c-18.779873 0-33.99897-15.126145-33.99897-33.807704 0-18.65832 15.219097-33.800553 33.99897-33.800553 18.758422 0 34.004333 15.142233 34.004333 33.800553C409.968233 509.375001 394.722322 524.501146 375.9639 524.501146zM511.999106 524.501146c-18.790598 0-34.004333-15.126145-34.004333-33.807704 0-18.65832 15.215522-33.800553 34.004333-33.800553 18.787023 0 34.011483 15.142233 34.011483 33.800553C546.010589 509.375001 530.784342 524.501146 511.999106 524.501146zM648.05755 524.501146c-18.783448 0-34.011483-15.126145-34.011483-33.807704 0-18.65832 15.229823-33.800553 34.011483-33.800553 18.761997 0 33.995395 15.142233 33.995395 33.800553C682.051158 509.375001 666.819548 524.501146 648.05755 524.501146z" p-id="3609"></path><path d="M873.95586 96.418005 150.04414 96.418005c-29.615927 0-53.626136 24.010209-53.626136 53.626136l0 723.913507c0 29.615927 24.010209 53.626136 53.626136 53.626136l723.911719 0c29.615927 0 53.626136-24.010209 53.626136-53.626136L927.581995 150.04414C927.581995 120.428213 903.571787 96.418005 873.95586 96.418005zM762.829994 625.954645c0 25.681556-20.966032 46.577874-46.75484 46.577874L447.821134 672.532519l-98.80973 65.491812c-2.12002 1.413942-4.58146 2.12717-7.044687 2.12717-2.073544 0-4.154238-0.505873-6.03294-1.52477-4.143513-2.218334-6.728292-6.540601-6.728292-11.238251l0-54.855962-21.268125 0c-25.783446 0-46.765565-20.89453-46.765565-46.577874L261.171794 355.485866c0-25.704794 20.982119-46.61005 46.765565-46.61005l408.137794 0c25.790596 0 46.75484 20.905255 46.75484 46.61005L762.829994 625.954645z" p-id="3610"></path></svg>